<?xml version="1.0"?>
<svg width="16" height="16" xmlns="http://www.w3.org/2000/svg" xmlns:svg="http://www.w3.org/2000/svg" enable-background="new 0 0 16 16" version="1.1" xml:space="preserve">
 <g class="layer">
  <title>Layer 1</title>
  <g id="svg_1">
   <path d="m2.08,9l-2.02,0l-0.06,0l0,5l1.48,-1.36c1.45,2.03 3.83,3.36 6.52,3.36c4.08,0 7.45,-3.05 7.94,-7l-2.02,0c-0.48,2.84 -2.95,5 -5.92,5c-2.11,0 -3.96,-1.09 -5.03,-2.73l2.47,-2.27l-3.36,0z" fill="#030104" id="svg_2"/>
   <path d="m8,0c-4.08,0 -7.45,3.05 -7.94,7l2.02,0c0.48,-2.84 2.95,-5 5.92,-5c2.17,0 4.07,1.15 5.12,2.88l-2.12,2.12l2,0l0.92,0l2.02,0l0.06,0l0,-5l-1.43,1.43c-1.45,-2.07 -3.85,-3.43 -6.57,-3.43z" fill="#030104" id="svg_3"/>
  </g>
  <g id="svg_4"/>
  <g id="svg_5"/>
  <g id="svg_6"/>
  <g id="svg_7"/>
  <g id="svg_8"/>
  <g id="svg_9"/>
  <g id="svg_10"/>
  <g id="svg_11"/>
  <g id="svg_12"/>
  <g id="svg_13"/>
  <g id="svg_14"/>
  <g id="svg_15"/>
  <g id="svg_16"/>
  <g id="svg_17"/>
  <g id="svg_18"/>
 </g>
</svg>